<?xml version="1.0" standalone="no"?>
<!DOCTYPE svg PUBLIC "-//W3C//DTD SVG 20010904//EN"
 "http://www.w3.org/TR/2001/REC-SVG-20010904/DTD/svg10.dtd">
<svg version="1.0" xmlns="http://www.w3.org/2000/svg"
 width="512.000000pt" height="447.000000pt" viewBox="0 0 512.000000 447.000000"
 preserveAspectRatio="xMidYMid meet">

<g transform="translate(0.000000,447.000000) scale(0.100000,-0.100000)"
fill="#000000" stroke="none">
<path d="M1115 4460 c-307 -48 -591 -224 -792 -490 -124 -165 -236 -429 -282
-665 -116 -604 5 -1051 392 -1437 165 -165 353 -300 743 -538 253 -154 392
-245 519 -340 356 -268 720 -665 838 -917 l30 -66 27 60 c65 142 231 354 455
579 297 298 501 457 945 734 385 241 562 373 731 548 204 211 323 429 376 689
25 122 24 443 -1 598 -44 273 -121 482 -251 680 -343 523 -983 700 -1540 426
-297 -146 -529 -386 -695 -720 l-51 -102 -54 109 c-221 442 -546 724 -954 829
-109 27 -331 39 -436 23z"/>
</g>
</svg>
