<?xml version="1.0" standalone="no"?>
<!DOCTYPE svg PUBLIC "-//W3C//DTD SVG 20010904//EN"
 "http://www.w3.org/TR/2001/REC-SVG-20010904/DTD/svg10.dtd">
<svg version="1.0" xmlns="http://www.w3.org/2000/svg"
 width="1280.000000pt" height="1210.000000pt" viewBox="0 0 1280.000000 1210.000000"
 preserveAspectRatio="xMidYMid meet">

<g transform="translate(0.000000,1210.000000) scale(0.100000,-0.100000)"
fill="#000000" stroke="none">
<path d="M3273 11825 c-1487 -148 -2687 -1252 -2959 -2724 -120 -653 -36
-1511 215 -2194 282 -766 731 -1412 1533 -2202 330 -327 491 -474 1148 -1050
914 -802 1347 -1205 1749 -1629 549 -579 864 -966 1329 -1638 l102 -147 167
247 c506 751 957 1289 1664 1987 353 348 567 545 1274 1174 319 284 663 592
765 685 232 212 779 758 932 931 641 724 1022 1394 1212 2129 148 572 176
1217 75 1736 -239 1233 -1163 2237 -2374 2584 -464 132 -986 161 -1463 81
-880 -149 -1657 -628 -2170 -1339 -86 -118 -86 -118 -102 -95 -165 253 -440
554 -675 743 -609 487 -1335 740 -2113 735 -97 -1 -237 -7 -309 -14z m707
-520 c511 -69 991 -276 1390 -598 142 -114 366 -346 473 -489 159 -211 229
-339 432 -776 60 -128 112 -229 116 -225 4 4 57 114 117 243 200 430 257 533
416 745 252 336 621 639 1001 825 391 191 745 280 1180 296 773 29 1531 -273
2090 -831 594 -594 884 -1383 826 -2245 -36 -528 -148 -961 -365 -1415 -343
-715 -901 -1372 -2011 -2366 -77 -69 -342 -305 -590 -526 -546 -486 -663 -593
-1011 -924 -599 -571 -1095 -1123 -1523 -1693 l-138 -184 -136 178 c-358 465
-773 928 -1278 1425 -351 345 -701 664 -1409 1284 -1238 1085 -1696 1559
-2106 2181 -458 694 -684 1445 -684 2270 0 766 296 1486 830 2020 393 393 895
663 1430 770 126 25 195 35 385 54 83 8 455 -4 565 -19z"/>
</g>
</svg>
